# xmcd
#
# Track frame offsets:
#	150
#	15074
#	27580
#	40996
#	59168
#	76245
#	88164
#	105366
#	119496
#	133287
#
# Disc length: 2065 seconds
#
# Revision: 0
# Processed by: cddbd v1.5.1PL0 Copyright (c) Steve Scherf et al.
# Submitted via: audiograbber 1.83.01
#
DISCID=81080f0a
DTITLE=Hill, Faith - Take Me As I Am - Hill, Faith - Take Me As I Am
DYEAR=2000
DGENRE=Country
TTITLE0=Take Me As I Am
TTITLE1=Wild One
TTITLE2=Just About Now
TTITLE3=Piece Of My Heart
TTITLE4=I've Got This Friend
TTITLE5=Life's Too Short To Love Like That
TTITLE6=But I Will
TTITLE7=Just Around The Eyes'
TTITLE8=Go The Distance
TTITLE9=I Would Be Stronger Than That
EXTD=
EXTT0=
EXTT1=
EXTT2=
EXTT3=
EXTT4=
EXTT5=
EXTT6=
EXTT7=
EXTT8=
EXTT9=
PLAYORDER=
